<svg xmlns="http://www.w3.org/2000/svg" viewBox="0 0 768 512">
  <g transform="translate(0, 0)">
    <path fill="#012031" d="M22.7 33.4c13.5-4.1 28.1 1.1 35.9 12.9L224 294.3 389.4 46.3c7.8-11.7 22.4-17 35.9-12.9S448 49.9 448 64l0 384c0 17.7-14.3 32-32 32s-32-14.3-32-32l0-278.3L250.6 369.8c-5.9 8.9-15.9 14.2-26.6 14.2s-20.7-5.3-26.6-14.2L64 169.7 64 448c0 17.7-14.3 32-32 32s-32-14.3-32-32L0 64C0 49.9 9.2 37.5 22.7 33.4z"/>
  </g>
  <g transform="translate(448, 0)">
    <path fill="#012031" d="M0 96C0 60.7 28.7 32 64 32l96 0c88.4 0 160 71.6 160 160s-71.6 160-160 160l-96 0 0 96c0 17.7-14.3 32-32 32s-32-14.3-32-32L0 320 0 96zM64 288l96 0c53 0 96-43 96-96s-43-96-96-96L64 96l0 192z"/>
  </g>
</svg>
